<svg viewBox="0 0 1024 1024" xmlns="http://www.w3.org/2000/svg">
  <g>
    <circle cx="512" cy="512" r="500" stroke="#b794f4" stroke-width="12" fill="none"/>
    <g stroke="#b794f4" stroke-width="8" fill="none">
      <path d="M 200 600 Q 300 400 400 500 Q 500 600 600 400 Q 700 200 800 400 Q 900 600 700 700 Q 500 800 400 700 Q 300 600 200 600 Z"/>
      <ellipse cx="512" cy="512" rx="300" ry="350"/>
      <path d="M 400 700 Q 450 600 512 650 Q 574 700 600 700"/>
      <path d="M 512 650 Q 512 600 512 550"/>
      <path d="M 512 550 Q 530 530 550 540 Q 570 550 570 570 Q 570 590 550 600 Q 530 610 512 600"/>
      <path d="M 512 550 Q 494 530 474 540 Q 454 550 454 570 Q 454 590 474 600 Q 494 610 512 600"/>
      <path d="M 512 600 Q 512 650 512 700"/>
    </g>
  </g>
</svg>
